<?xml version="1.0" encoding="UTF-8" standalone="no"?>
<!-- Created with Inkscape (http://www.inkscape.org/) -->

<svg
   xmlns:dc="http://purl.org/dc/elements/1.1/"
   xmlns:cc="http://creativecommons.org/ns#"
   xmlns:rdf="http://www.w3.org/1999/02/22-rdf-syntax-ns#"
   xmlns:svg="http://www.w3.org/2000/svg"
   xmlns="http://www.w3.org/2000/svg"
   xmlns:sodipodi="http://sodipodi.sourceforge.net/DTD/sodipodi-0.dtd"
   xmlns:inkscape="http://www.inkscape.org/namespaces/inkscape"
   width="320"
   height="240"
   id="svg2"
   version="1.1"
   inkscape:version="0.91 r13725"
   sodipodi:docname="schema-map.svg">
  <defs
     id="defs4" />
  <sodipodi:namedview
     id="base"
     pagecolor="#ffffff"
     bordercolor="#666666"
     borderopacity="1.0"
     inkscape:pageopacity="0.0"
     inkscape:pageshadow="2"
     inkscape:zoom="1.4142136"
     inkscape:cx="196.43725"
     inkscape:cy="146.92365"
     inkscape:document-units="px"
     inkscape:current-layer="layer1"
     showgrid="false"
     inkscape:showpageshadow="false"
     showguides="true"
     inkscape:guide-bbox="true"
     inkscape:window-width="1680"
     inkscape:window-height="986"
     inkscape:window-x="0"
     inkscape:window-y="27"
     inkscape:window-maximized="1"
     inkscape:snap-global="false">
    <sodipodi:guide
       orientation="1,0"
       position="160,251.42857"
       id="guide3774" />
    <sodipodi:guide
       orientation="0,1"
       position="-51.428571,120"
       id="guide3776" />
  </sodipodi:namedview>
  <metadata
     id="metadata7">
    <rdf:RDF>
      <cc:Work
         rdf:about="">
        <dc:format>image/svg+xml</dc:format>
        <dc:type
           rdf:resource="http://purl.org/dc/dcmitype/StillImage" />
        <dc:title />
      </cc:Work>
    </rdf:RDF>
  </metadata>
  <g
     inkscape:label="Layer 1"
     inkscape:groupmode="layer"
     id="layer1"
     transform="translate(0,-812.36218)">
    <rect
       style="fill:#d7d7d7;fill-opacity:1;stroke:none;stroke-width:1;stroke-linecap:square;stroke-linejoin:miter;stroke-miterlimit:4;stroke-dasharray:none;stroke-dashoffset:0;stroke-opacity:1"
       id="rect3868"
       height="240"
       x="0"
       y="812.36218"
       width="320" />
    <path
       sodipodi:type="arc"
       style="fill:#f1c40f;fill-opacity:1;stroke:none;stroke-width:0.94627146;stroke-miterlimit:4;stroke-dasharray:none"
       id="path2985"
       sodipodi:cx="97.85714"
       sodipodi:cy="173.57143"
       sodipodi:rx="50.714287"
       sodipodi:ry="50.714287"
       d="M 148.57143,173.57143 A 50.714287,50.714287 0 0 1 97.85714,224.28571 50.714287,50.714287 0 0 1 47.142853,173.57143 50.714287,50.714287 0 0 1 97.85714,122.85714 50.714287,50.714287 0 0 1 148.57143,173.57143 Z"
       transform="matrix(1.0567792,0,0,1.0567792,-42.50476,802.52931)" />
    <path
       style="fill:#1abc9c;fill-opacity:1;stroke:none;stroke-width:1;stroke-miterlimit:4;stroke-dasharray:none"
       d="m 103.40003,853.66447 c 11.51867,6.97576 -0.007,27.58279 -14.045999,41.54829 -14.976374,14.89775 -35.037179,24.71484 -42.44254,14.94024 -6.859924,-9.05466 -33.085621,-69.0596 -22.349152,-79.73193 12.721338,-12.6454 72.196674,19.22155 78.837691,23.2434 z"
       id="path2985-2"
       inkscape:connector-curvature="0"
       sodipodi:nodetypes="sssss" />
    <path
       sodipodi:type="arc"
       style="fill:#e74c3c;fill-opacity:1;stroke:none;stroke-width:1.49221914;stroke-miterlimit:4;stroke-dasharray:none"
       id="path2985-6"
       sodipodi:cx="97.85714"
       sodipodi:cy="173.57143"
       sodipodi:rx="50.714287"
       sodipodi:ry="50.714287"
       d="M 148.57143,173.57143 A 50.714287,50.714287 0 0 1 97.85714,224.28571 50.714287,50.714287 0 0 1 47.142853,173.57143 50.714287,50.714287 0 0 1 97.85714,122.85714 50.714287,50.714287 0 0 1 148.57143,173.57143 Z"
       transform="matrix(0.67014286,0,0,0.67014286,94.421737,880.56044)" />
    <path
       sodipodi:type="arc"
       style="fill:#3498db;fill-opacity:1;stroke:none;stroke-width:1.08656681;stroke-miterlimit:4;stroke-dasharray:none"
       id="path2985-6-3"
       sodipodi:cx="97.85714"
       sodipodi:cy="173.57143"
       sodipodi:rx="50.714287"
       sodipodi:ry="50.714287"
       d="M 148.57143,173.57143 A 50.714287,50.714287 0 0 1 97.85714,224.28571 50.714287,50.714287 0 0 1 47.142853,173.57143 50.714287,50.714287 0 0 1 97.85714,122.85714 50.714287,50.714287 0 0 1 148.57143,173.57143 Z"
       transform="matrix(0.92032997,0,0,0.92032997,69.939142,725.94532)" />
    <path
       style="fill:#9b59b6;fill-opacity:1;stroke:none;stroke-width:1;stroke-miterlimit:4;stroke-dasharray:none"
       d="m 220.1375,853.23187 c -11.51867,6.97576 0.007,27.58279 14.046,41.54829 14.97638,14.89775 35.03718,24.71484 42.44254,14.94024 6.85993,-9.05466 33.08562,-69.0596 22.34915,-79.73193 -12.72133,-12.6454 -72.19667,19.22155 -78.83769,23.2434 z"
       id="path2985-2-0"
       inkscape:connector-curvature="0"
       sodipodi:nodetypes="sssss" />
    <path
       sodipodi:type="arc"
       style="fill:#bdc3c7;fill-opacity:1;stroke:none;stroke-width:0.94627146;stroke-miterlimit:4;stroke-dasharray:none"
       id="path2985-3"
       sodipodi:cx="97.85714"
       sodipodi:cy="173.57143"
       sodipodi:rx="50.714287"
       sodipodi:ry="50.714287"
       d="M 148.57143,173.57143 A 50.714287,50.714287 0 0 1 97.85714,224.28571 50.714287,50.714287 0 0 1 47.142853,173.57143 50.714287,50.714287 0 0 1 97.85714,122.85714 50.714287,50.714287 0 0 1 148.57143,173.57143 Z"
       transform="matrix(1.0567792,0,0,1.0567792,154.17551,802.52931)" />
  </g>
</svg>
